<svg xmlns="http://www.w3.org/2000/svg" width="885.4285716231991" height="133.57142871739916" style="background: none 0% 0% repeat scroll rgba(0, 0, 0, 0);" preserveAspectRatio="xMidYMid"><rect id="backgroundrect" width="100%" height="100%" x="0" y="0" fill="none" stroke="none" class="" style=""/><defs><filter xmlns:inkscape="http://www.inkscape.org/namespaces/inkscape" id="f058" inkscape:label="Eroded metal" inkscape:menu="Materials" inkscape:menu-tooltip="Eroded metal texture with ridges, grooves, holes and bumps" color-interpolation-filters="sRGB">
            <feGaussianBlur result="result0" in="SourceGraphic" stdDeviation="1"/>
            <feTurbulence id="feTurbulence3768" type="turbulence" baseFrequency=".057" seed="4" numOctaves="4" result="result1"/>
            <feDisplacementMap xChannelSelector="R" in2="result1" result="result91"/>
            <feComposite result="result2" operator="out" in="result0" in2="result91"/>
            <feComposite k1=".1" k3="1.2" in2="result2" in="SourceAlpha" operator="arithmetic" result="result5"/>
            <feBlend result="fbSourceGraphic" mode="multiply" in2="result5"/>
            <feGaussianBlur stdDeviation="3" in="fbSourceGraphic" result="result0"/>
            <feSpecularLighting in="result0" result="result1" lighting-color="#fee65d" surfaceScale="3" specularConstant=".4" specularExponent="15">
                <fePointLight x="-5000" y="-10000" z="20000"/>
            </feSpecularLighting>
            <feComposite in2="fbSourceGraphic" in="result1" result="result2" operator="in"/>
            <feComposite k1="-1" in="fbSourceGraphic" result="result4" operator="arithmetic" k2="2.5" k3="3.5" in2="result2"/>
            <feBlend mode="multiply" in2="result4"/>
        </filter></defs><style>text {
  font-size: 64px;
  font-family: Arial Black;
  dominant-baseline: central;
  text-anchor: middle;
}</style><g class="currentLayer" style=""><title>Layer 1</title><g filter="" id="svg_1" class="" fill="#0084ff" fill-opacity="1" stroke="#000000" stroke-opacity="1" opacity="1" stroke-width="1"><g id="svg_2" fill="#0084ff" fill-opacity="1" stroke="#000000" stroke-opacity="1" filter="" opacity="1" stroke-width="1"><path d="M14.066801810390263,119.9216893333624 L19.516830951757875,10.296100732410338 L32.55797211145899,10.296100732410338 L65.6474347554767,74.92877674795537 L67.00994204081859,74.92877674795537 L99.90476078693031,10.296100732410338 L113.14054584453737,10.296100732410338 L118.39593108799903,119.9216893333624 L106.13336551992188,119.9216893333624 L103.4083509492381,62.96637538596218 L102.62977535761412,30.828580682100025 L101.2672680722722,30.471494074279406 L71.48675169265628,86.53409150212781 L60.975981205733035,86.53409150212781 L31.195464826117046,30.471494074279406 L29.832957540775183,30.828580682100025 L29.249025847057197,62.96637538596218 L26.524011276373397,119.9216893333624 L14.066801810390263,119.9216893333624 zM181.0712662137267,121.52857906855553 L181.0712662137267,121.52857906855553 Q160.6336569335981,121.52857906855553 143.11570612205932,113.49413039258994 L143.11570612205932,113.49413039258994 L147.39787187599103,103.67424867752098 L147.39787187599103,103.67424867752098 Q155.76755948594848,107.42365805963823 164.13724709590582,109.1198194467865 L164.13724709590582,109.1198194467865 L164.13724709590582,109.1198194467865 Q172.5069347058633,110.81598083393479 182.23912960116263,110.81598083393479 L182.23912960116263,110.81598083393479 L182.23912960116263,110.81598083393479 Q194.89098296505173,110.81598083393479 205.207109554069,107.24511475572785 L205.207109554069,107.24511475572785 L205.207109554069,107.24511475572785 Q208.3214119205648,100.9960991188658 208.3214119205648,92.24747722725888 L208.3214119205648,92.24747722725888 L208.3214119205648,92.24747722725888 Q208.3214119205648,83.14176872783128 202.48209498338517,78.49964282616224 L202.48209498338517,78.49964282616224 L202.48209498338517,78.49964282616224 Q196.64277804620565,73.8575169244933 182.23912960116263,70.46519415019671 L182.23912960116263,70.46519415019671 L182.23912960116263,70.46519415019671 Q164.72117878962385,66.53724146416909 155.1836277922305,60.02041087144153 L155.1836277922305,60.02041087144153 L155.1836277922305,60.02041087144153 Q145.64607679483714,53.50358027871391 145.64607679483714,40.11283248543802 L145.64607679483714,40.11283248543802 L145.64607679483714,40.11283248543802 Q145.64607679483714,26.186454780431077 154.59969609851257,17.34856123686899 L154.59969609851257,17.34856123686899 L154.59969609851257,17.34856123686899 Q163.5533154021879,8.510667693306885 184.57485637603446,8.510667693306885 L184.57485637603446,8.510667693306885 L184.57485637603446,8.510667693306885 Q195.4749146587697,8.510667693306885 202.87138277919718,10.206829080455137 L202.87138277919718,10.206829080455137 L202.87138277919718,10.206829080455137 Q210.26785089962465,11.902990467603445 216.8857434284282,15.295313241900047 L216.8857434284282,15.295313241900047 L216.8857434284282,20.83015566312075 L216.8857434284282,20.83015566312075 Q216.8857434284282,27.614801211713825 213.96608495983844,36.006336495500065 L213.96608495983844,36.006336495500065 L205.40175345197503,36.006336495500065 L203.45531447291518,20.115982447479325 L203.45531447291518,20.115982447479325 Q190.99810500693204,18.687636016196578 183.40699298859852,18.687636016196578 L183.40699298859852,18.687636016196578 L183.40699298859852,18.687636016196578 Q169.5872762372735,18.687636016196578 163.74795930009392,23.508305221775885 L163.74795930009392,23.508305221775885 L163.74795930009392,23.508305221775885 Q157.9086423629143,28.32897442735522 157.9086423629143,38.68448605415524 L157.9086423629143,38.68448605415524 L157.9086423629143,38.68448605415524 Q157.9086423629143,44.754958387107024 160.6336569335981,48.593639421179375 L160.6336569335981,48.593639421179375 L160.6336569335981,48.593639421179375 Q163.35867150428194,52.43232045525184 169.29531039041453,54.931926709996645 L169.29531039041453,54.931926709996645 L169.29531039041453,54.931926709996645 Q175.2319492765471,57.431532964741535 185.93736366137637,59.752595915575995 L185.93736366137637,59.752595915575995 L185.93736366137637,59.752595915575995 Q204.42853396244507,63.68054860160359 212.60357767449653,70.19737919433123 L212.60357767449653,70.19737919433123 L212.60357767449653,70.19737919433123 Q220.778621386548,76.71420978705876 220.778621386548,88.85515445296227 L220.778621386548,88.85515445296227 L220.778621386548,88.85515445296227 Q220.778621386548,103.31716206970026 211.82500208287254,112.42287056912787 L211.82500208287254,112.42287056912787 L211.82500208287254,112.42287056912787 Q202.87138277919718,121.52857906855553 181.0712662137267,121.52857906855553 L181.0712662137267,121.52857906855553 zM248.61269878710402,119.9216893333624 L248.61269878710402,12.974250291065502 L248.61269878710402,12.974250291065502 Q266.32529349654874,8.510667693306885 280.7289419415918,8.510667693306885 L280.7289419415918,8.510667693306885 L280.7289419415918,8.510667693306885 Q326.0809701536866,8.510667693306885 326.0809701536866,45.290588298838045 L326.0809701536866,45.290588298838045 L326.0809701536866,45.290588298838045 Q326.0809701536866,64.57326512115532 315.27823381990436,73.8575169244933 L315.27823381990436,73.8575169244933 L315.27823381990436,73.8575169244933 Q304.47549748612215,83.14176872783128 280.14501024787387,83.14176872783128 L280.14501024787387,83.14176872783128 L260.8752643551811,83.14176872783128 L260.8752643551811,119.9216893333624 L248.61269878710402,119.9216893333624 zM260.8752643551811,72.96480040494157 L278.5878590646259,72.96480040494157 L278.5878590646259,72.96480040494157 Q288.51469785783127,72.96480040494157 294.74330259082285,72.42917049321056 L294.74330259082285,72.42917049321056 L294.74330259082285,72.42917049321056 Q300.9719073238144,71.89354058147947 306.8112242609939,70.28665084628636 L306.8112242609939,70.28665084628636 L306.8112242609939,70.28665084628636 Q313.8184045856095,61.3594856507691 313.8184045856095,45.82621821056904 L313.8184045856095,45.82621821056904 L313.8184045856095,45.82621821056904 Q313.8184045856095,31.542753897741434 305.35139502669904,25.204466608924193 L305.35139502669904,25.204466608924193 L305.35139502669904,25.204466608924193 Q296.88438546778866,18.86617932010695 280.5342980436858,18.86617932010695 L280.5342980436858,18.86617932010695 L280.5342980436858,18.86617932010695 Q269.24495196513857,18.86617932010695 260.8752643551811,20.83015566312075 L260.8752643551811,20.83015566312075 L260.8752643551811,72.96480040494157 zM347.10251112753315,74.75023344404502 L347.10251112753315,65.2874383367967 L398.2938562768077,65.2874383367967 L398.2938562768077,74.75023344404502 L347.10251112753315,74.75023344404502 zM473.8156886643304,121.52857906855553 L473.8156886643304,121.52857906855553 Q423.20827520877396,121.52857906855553 423.20827520877396,67.9655878954519 L423.20827520877396,67.9655878954519 L423.20827520877396,67.9655878954519 Q423.20827520877396,41.0055490049897 435.5681627258041,24.7581083491483 L435.5681627258041,24.7581083491483 L435.5681627258041,24.7581083491483 Q447.9280502428342,8.510667693306885 472.8424691748005,8.510667693306885 L472.8424691748005,8.510667693306885 L472.8424691748005,8.510667693306885 Q482.76930796800576,8.510667693306885 492.01489311854016,10.474644036320711 L492.01489311854016,10.474644036320711 L492.01489311854016,10.474644036320711 Q501.26047826907467,12.438620379334466 506.51586351253604,15.473856545810335 L506.51586351253604,15.473856545810335 L506.51586351253604,23.686848525686216 L506.51586351253604,23.686848525686216 Q506.51586351253604,30.828580682100025 504.37478063557023,35.64924988767936 L504.37478063557023,35.64924988767936 L496.3943808214247,35.64924988767936 L494.447941842365,21.008698967031037 L494.447941842365,21.008698967031037 Q485.4943225386896,19.044722624017282 472.64782527689454,19.044722624017282 L472.64782527689454,19.044722624017282 L472.64782527689454,19.044722624017282 Q460.5799036067233,19.044722624017282 448.5119819365521,22.079958790493137 L448.5119819365521,22.079958790493137 L448.5119819365521,22.079958790493137 Q435.4708407768511,39.93428918152766 435.4708407768511,67.25141467981052 L435.4708407768511,67.25141467981052 L435.4708407768511,67.25141467981052 Q435.4708407768511,89.92641427642437 444.71642592738544,100.46046920713474 L444.71642592738544,100.46046920713474 L444.71642592738544,100.46046920713474 Q453.96201107791967,110.9945241378451 474.2049764601423,110.9945241378451 L474.2049764601423,110.9945241378451 L474.2049764601423,110.9945241378451 Q483.3532396617238,110.9945241378451 491.6256053227282,109.03054779483134 L491.6256053227282,109.03054779483134 L491.6256053227282,109.03054779483134 Q499.8979709837326,107.06657145181751 505.5426440230061,103.67424867752098 L505.5426440230061,103.67424867752098 L511.1873170622798,112.06578396130718 L511.1873170622798,112.06578396130718 Q504.9587123292882,116.70790986297618 495.3238393829419,119.11824446576583 L495.3238393829419,119.11824446576583 L495.3238393829419,119.11824446576583 Q485.68896643659565,121.52857906855553 473.8156886643304,121.52857906855553 L473.8156886643304,121.52857906855553 zM577.1715984524092,121.52857906855553 L577.1715984524092,121.52857906855553 Q535.3231604026222,121.52857906855553 535.3231604026222,89.56932766860368 L535.3231604026222,89.56932766860368 L535.3231604026222,10.296100732410338 L547.5857259706994,10.296100732410338 L547.5857259706994,87.06972141385882 L547.5857259706994,87.06972141385882 Q547.5857259706994,100.63901251104511 554.7875501932208,105.81676832444504 L554.7875501932208,105.81676832444504 L554.7875501932208,105.81676832444504 Q561.9893744157424,110.9945241378451 578.534105737751,110.9945241378451 L578.534105737751,110.9945241378451 L578.534105737751,110.9945241378451 Q597.8038516304439,110.9945241378451 608.8985538110852,106.53094154008647 L608.8985538110852,106.53094154008647 L608.8985538110852,10.296100732410338 L621.1611193791623,10.296100732410338 L621.1611193791623,101.35318572668643 L621.1611193791623,101.35318572668643 Q621.1611193791623,111.70869735348651 609.38516355585,116.618638211021 L609.38516355585,116.618638211021 L609.38516355585,116.618638211021 Q597.6092077325378,121.52857906855553 577.1715984524092,121.52857906855553 L577.1715984524092,121.52857906855553 zM685.1989617902318,121.52857906855553 L685.1989617902318,121.52857906855553 Q664.7613525101033,121.52857906855553 647.2434016985643,113.49413039258994 L647.2434016985643,113.49413039258994 L651.5255674524961,103.67424867752098 L651.5255674524961,103.67424867752098 Q659.8952550624534,107.42365805963823 668.2649426724109,109.1198194467865 L668.2649426724109,109.1198194467865 L668.2649426724109,109.1198194467865 Q676.6346302823683,110.81598083393479 686.3668251776677,110.81598083393479 L686.3668251776677,110.81598083393479 L686.3668251776677,110.81598083393479 Q699.0186785415568,110.81598083393479 709.3348051305741,107.24511475572785 L709.3348051305741,107.24511475572785 L709.3348051305741,107.24511475572785 Q712.4491074970699,100.9960991188658 712.4491074970699,92.24747722725888 L712.4491074970699,92.24747722725888 L712.4491074970699,92.24747722725888 Q712.4491074970699,83.14176872783128 706.6097905598903,78.49964282616224 L706.6097905598903,78.49964282616224 L706.6097905598903,78.49964282616224 Q700.7704736227107,73.8575169244933 686.3668251776677,70.46519415019671 L686.3668251776677,70.46519415019671 L686.3668251776677,70.46519415019671 Q668.8488743661288,66.53724146416909 659.3113233687355,60.02041087144153 L659.3113233687355,60.02041087144153 L659.3113233687355,60.02041087144153 Q649.7737723713421,53.50358027871391 649.7737723713421,40.11283248543802 L649.7737723713421,40.11283248543802 L649.7737723713421,40.11283248543802 Q649.7737723713421,26.186454780431077 658.7273916750177,17.34856123686899 L658.7273916750177,17.34856123686899 L658.7273916750177,17.34856123686899 Q667.6810109786928,8.510667693306885 688.7025519525395,8.510667693306885 L688.7025519525395,8.510667693306885 L688.7025519525395,8.510667693306885 Q699.6026102352748,8.510667693306885 706.9990783557022,10.206829080455137 L706.9990783557022,10.206829080455137 L706.9990783557022,10.206829080455137 Q714.3955464761297,11.902990467603445 721.0134390049334,15.295313241900047 L721.0134390049334,15.295313241900047 L721.0134390049334,20.83015566312075 L721.0134390049334,20.83015566312075 Q721.0134390049334,27.614801211713825 718.0937805363435,36.006336495500065 L718.0937805363435,36.006336495500065 L709.5294490284799,36.006336495500065 L707.5830100494202,20.115982447479325 L707.5830100494202,20.115982447479325 Q695.1258005834371,18.687636016196578 687.5346885651035,18.687636016196578 L687.5346885651035,18.687636016196578 L687.5346885651035,18.687636016196578 Q673.7149718137787,18.687636016196578 667.8756548765989,23.508305221775885 L667.8756548765989,23.508305221775885 L667.8756548765989,23.508305221775885 Q662.0363379394192,28.32897442735522 662.0363379394192,38.68448605415524 L662.0363379394192,38.68448605415524 L662.0363379394192,38.68448605415524 Q662.0363379394192,44.754958387107024 664.7613525101033,48.593639421179375 L664.7613525101033,48.593639421179375 L664.7613525101033,48.593639421179375 Q667.486367080787,52.43232045525184 673.4230059669196,54.931926709996645 L673.4230059669196,54.931926709996645 L673.4230059669196,54.931926709996645 Q679.3596448530523,57.431532964741535 690.0650592378813,59.752595915575995 L690.0650592378813,59.752595915575995 L690.0650592378813,59.752595915575995 Q708.5562295389502,63.68054860160359 716.7312732510015,70.19737919433123 L716.7312732510015,70.19737919433123 L716.7312732510015,70.19737919433123 Q724.906316963053,76.71420978705876 724.906316963053,88.85515445296227 L724.906316963053,88.85515445296227 L724.906316963053,88.85515445296227 Q724.906316963053,103.31716206970026 715.9526976593776,112.42287056912787 L715.9526976593776,112.42287056912787 L715.9526976593776,112.42287056912787 Q706.9990783557022,121.52857906855553 685.1989617902318,121.52857906855553 L685.1989617902318,121.52857906855553 zM753.129682159421,119.9216893333624 L753.129682159421,10.296100732410338 L765.3922477274982,10.296100732410338 L765.3922477274982,119.9216893333624 L753.129682159421,119.9216893333624 zM827.4836511595079,119.9216893333624 L827.4836511595079,20.83015566312075 L788.9441593741226,20.83015566312075 L788.9441593741226,10.296100732410338 L878.2857085129704,10.296100732410338 L878.2857085129704,20.83015566312075 L839.7462167275851,20.83015566312075 L839.7462167275851,119.9216893333624 L827.4836511595079,119.9216893333624 z" fill="#0084ff" id="svg_3" fill-opacity="1" stroke="#000000" stroke-opacity="1" filter="" opacity="1" stroke-width="1"/></g></g><path fill="#3c3c70" fill-opacity="1" stroke="#ffffff" stroke-opacity="1" stroke-width="1" stroke-dasharray="none" stroke-linejoin="miter" stroke-linecap="butt" stroke-dashoffset="" fill-rule="nonzero" opacity="1" marker-start="" marker-mid="" marker-end="" id="svg_4" d="M315.00000536441814,207.57143646600304 " style="color: rgb(60, 60, 112);"/></g></svg>