<svg width="1260.0400390625" height="457.6400146484375" xmlns="http://www.w3.org/2000/svg" preserveAspectRatio="xMidYMid">
 <defs>
  <filter height="300%" width="300%" y="-100%" x="-100%" id="editing-hole">
   <feGaussianBlur stdDeviation="4"/>
  </filter>
 </defs>
 <style>text {
  font-size: 64px;
  font-family: Arial Black;
  dominant-baseline: central;
  text-anchor: middle;
}</style>
 <g>
  <title>background</title>
  <rect fill="none" id="canvas_background" height="602" width="802" y="-1" x="-1"/>
 </g>
 <g>
  <title>Layer 1</title>
  <g stroke="null" id="svg_1" filter="url(#editing-hole)">
   <g stroke="null" id="svg_2">
    <path stroke="null" id="svg_3" fill="#ffffff" d="m14.99997,291.80237l7.77568,-156.74944l18.60608,0l47.20946,92.41579l1.94392,0l46.93176,-92.41579l18.88378,0l7.49797,156.74944l-17.49527,0l-3.88784,-81.43823l-1.11081,-45.9526l-1.94392,-0.51058l-42.48851,80.16177l-14.99595,0l-42.48851,-80.16177l-1.94392,0.51058l-0.83311,45.9526l-3.88784,81.43823l-17.77297,0zm238.26892,2.29763l0,0q-29.15878,0 -54.15203,-11.48815l0,0l6.10946,-14.04107l0,0q11.94122,5.36114 23.88243,7.78641l0,0l0,0q11.94122,2.42528 25.82635,2.42528l0,0l0,0q18.05068,0 32.76892,-5.10584l0,0l0,0q4.44324,-8.93523 4.44324,-21.44455l0,0l0,0q0,-13.0199 -8.33108,-19.6575l0,0l0,0q-8.33108,-6.6376 -28.88108,-11.48815l0,0l0,0q-24.99324,-5.61643 -38.60068,-14.9346l0,0l0,0q-13.60743,-9.31817 -13.60743,-28.46509l0,0l0,0q0,-19.9128 12.77432,-32.54976l0,0l0,0q12.77432,-12.63697 42.76622,-12.63697l0,0l0,0q15.55135,0 26.10405,2.42528l0,0l0,0q10.5527,2.42528 19.99459,7.27583l0,0l0,7.91406l0,0q0,9.70111 -4.16554,21.69984l0,0l-12.21892,0l-2.77703,-22.72101l0,0q-17.77297,-2.04234 -28.60338,-2.04234l0,0l0,0q-19.71689,0 -28.04797,6.89289l0,0l0,0q-8.33108,6.89289 -8.33108,21.69984l0,0l0,0q0,8.67994 3.88784,14.16872l0,0l0,0q3.88784,5.48878 12.35777,9.06287l0,0l0,0q8.46993,3.57409 23.74358,6.89289l0,0l0,0q26.38176,5.61643 38.04527,14.9346l0,0l0,0q11.66351,9.31817 11.66351,26.67804l0,0l0,0q0,20.67867 -12.77432,33.69858l0,0l0,0q-12.77432,13.0199 -43.87703,13.0199l0,0zm96.36284,-2.29763l0,-152.92006l0,0q25.27095,-6.38231 45.82095,-6.38231l0,0l0,0q64.70473,0 64.70473,52.5902l0,0l0,0q0,27.57156 -15.4125,40.84676l0,0l0,0q-15.4125,13.2752 -50.12534,13.2752l0,0l-27.49257,0l0,52.5902l-17.49527,0zm17.49527,-67.14186l25.27095,0l0,0q14.16284,0 23.04932,-0.76588l0,0l0,0q8.88649,-0.76588 17.21757,-3.06351l0,0l0,0q9.9973,-12.76461 9.9973,-34.97504l0,0l0,0q0,-20.42338 -12.08007,-29.48625l0,0l0,0q-12.08007,-9.06287 -35.40709,-9.06287l0,0l0,0q-16.10676,0 -28.04797,2.80821l0,0l0,74.54534zm123.0223,2.55292l0,-13.53049l73.03581,0l0,13.53049l-73.03581,0zm180.78446,66.88657l0,0q-72.2027,0 -72.2027,-76.58767l0,0l0,0q0,-38.54913 17.63412,-61.78072l0,0l0,0q17.63412,-23.23159 53.18007,-23.23159l0,0l0,0q14.16284,0 27.35372,2.80821l0,0l0,0q13.19088,2.80821 20.68885,7.14818l0,0l0,11.74344l0,0q0,10.21169 -3.05473,17.10458l0,0l-11.38581,0l-2.77703,-20.93396l0,0q-12.77432,-2.80821 -31.1027,-2.80821l0,0l0,0q-17.21757,0 -34.43513,4.33997l0,0l0,0q-18.60608,25.52922 -18.60608,64.58894l0,0l0,0q0,32.42212 13.19088,47.48436l0,0l0,0q13.19088,15.06224 42.07196,15.06224l0,0l0,0q13.05203,0 24.85439,-2.80821l0,0l0,0q11.80236,-2.80821 19.85574,-7.65877l0,0l8.05338,11.99874l0,0q-8.88649,6.6376 -22.63277,10.08404l0,0l0,0q-13.74628,3.44645 -30.68615,3.44645l0,0zm147.46013,0l0,0q-59.70608,0 -59.70608,-45.69731l0,0l0,-113.34976l17.49527,0l0,109.77567l0,0q0,19.40221 10.275,26.80569l0,0l0,0q10.275,7.40348 33.87973,7.40348l0,0l0,0q27.49257,0 43.32162,-6.38231l0,0l0,-137.60252l17.49527,0l0,130.19905l0,0q0,14.80695 -16.80101,21.82749l0,0l0,0q-16.80101,7.02054 -45.9598,7.02054l0,0zm154.125,0l0,0q-29.15878,0 -54.15203,-11.48815l0,0l6.10946,-14.04107l0,0q11.94122,5.36114 23.88243,7.78641l0,0l0,0q11.94122,2.42528 25.82635,2.42528l0,0l0,0q18.05068,0 32.76892,-5.10584l0,0l0,0q4.44324,-8.93523 4.44324,-21.44455l0,0l0,0q0,-13.0199 -8.33108,-19.6575l0,0l0,0q-8.33108,-6.6376 -28.88108,-11.48815l0,0l0,0q-24.99324,-5.61643 -38.60068,-14.9346l0,0l0,0q-13.60743,-9.31817 -13.60743,-28.46509l0,0l0,0q0,-19.9128 12.77432,-32.54976l0,0l0,0q12.77432,-12.63697 42.76622,-12.63697l0,0l0,0q15.55135,0 26.10405,2.42528l0,0l0,0q10.5527,2.42528 19.99459,7.27583l0,0l0,7.91406l0,0q0,9.70111 -4.16554,21.69984l0,0l-12.21892,0l-2.77703,-22.72101l0,0q-17.77297,-2.04234 -28.60338,-2.04234l0,0l0,0q-19.71689,0 -28.04797,6.89289l0,0l0,0q-8.33108,6.89289 -8.33108,21.69984l0,0l0,0q0,8.67994 3.88784,14.16872l0,0l0,0q3.88784,5.48878 12.35777,9.06287l0,0l0,0q8.46993,3.57409 23.74358,6.89289l0,0l0,0q26.38176,5.61643 38.04527,14.9346l0,0l0,0q11.66351,9.31817 11.66351,26.67804l0,0l0,0q0,20.67867 -12.77432,33.69858l0,0l0,0q-12.77432,13.0199 -43.87703,13.0199l0,0zm96.91824,-2.29763l0,-156.74944l17.49527,0l0,156.74944l-17.49527,0zm106.08243,0l0,-141.6872l-54.98513,0l0,-15.06224l127.46554,0l0,15.06224l-54.98513,0l0,141.6872l-17.49527,0z"/>
   </g>
  </g>
 </g>
</svg>