<?xml version="1.0" standalone="no"?><svg xmlns="http://www.w3.org/2000/svg" viewBox="0 0 1440 320"><path fill="#0099ff" fill-opacity="1" d="M0,160L30,149.3C60,139,120,117,180,138.7C240,160,300,224,360,234.7C420,245,480,203,540,181.3C600,160,660,160,720,165.3C780,171,840,181,900,176C960,171,1020,149,1080,165.3C1140,181,1200,235,1260,224C1320,213,1380,139,1410,101.3L1440,64L1440,0L1410,0C1380,0,1320,0,1260,0C1200,0,1140,0,1080,0C1020,0,960,0,900,0C840,0,780,0,720,0C660,0,600,0,540,0C480,0,420,0,360,0C300,0,240,0,180,0C120,0,60,0,30,0L0,0Z"></path></svg>