<?xml version="1.0" encoding="iso-8859-1"?>
<!-- Generator: Adobe Illustrator 19.0.0, SVG Export Plug-In . SVG Version: 6.00 Build 0)  -->
<svg version="1.1" id="Layer_1" xmlns="http://www.w3.org/2000/svg" xmlns:xlink="http://www.w3.org/1999/xlink" x="0px" y="0px"
	 viewBox="0 0 512 512" style="enable-background:new 0 0 512 512;" xml:space="preserve">
<g transform="translate(1 1)">
	<g>
		<g>
			<path d="M485.4-1H109.933c-14.507,0-25.6,11.093-25.6,25.6v247.467h-76.8C2.413,272.067-1,275.48-1,280.6v179.2
				c0,28.16,23.04,51.2,51.2,51.2h409.6c28.16,0,51.2-23.04,51.2-51.2V24.6C511,10.093,499.907-1,485.4-1z M16.067,459.8V289.133
				h68.267V459.8c0,18.773-15.36,34.133-34.133,34.133S16.067,478.573,16.067,459.8z M493.933,459.8
				c0,18.773-15.36,34.133-34.133,34.133H88.6c1.642-2.007,3.158-4.137,4.541-6.361c4.799-7.378,7.759-16.046,8.198-25.351
				c0.04-0.804,0.062-1.611,0.062-2.422V280.6v-256c0-5.12,3.413-8.533,8.533-8.533H485.4c5.12,0,8.533,3.413,8.533,8.533V459.8z"/>
			<path d="M135.533,212.333h153.6c5.12,0,8.533-3.413,8.533-8.533V50.2c0-5.12-3.413-8.533-8.533-8.533h-153.6
				c-5.12,0-8.533,3.413-8.533,8.533v153.6C127,208.92,130.413,212.333,135.533,212.333z M144.067,58.733H280.6v136.533H144.067
				V58.733z"/>
			<path d="M459.8,41.667H340.333c-5.12,0-8.533,3.413-8.533,8.533v409.6c0,5.12,3.413,8.533,8.533,8.533H459.8
				c5.12,0,8.533-3.413,8.533-8.533V50.2C468.333,45.08,464.92,41.667,459.8,41.667z M451.267,451.267h-102.4V58.733h102.4V451.267z
				"/>
			<path d="M297.667,237.933H135.533c-5.12,0-8.533,3.413-8.533,8.533s3.413,8.533,8.533,8.533h162.133
				c5.12,0,8.533-3.413,8.533-8.533S302.787,237.933,297.667,237.933z"/>
			<path d="M297.667,280.6H135.533c-5.12,0-8.533,3.413-8.533,8.533s3.413,8.533,8.533,8.533h162.133
				c5.12,0,8.533-3.413,8.533-8.533S302.787,280.6,297.667,280.6z"/>
			<path d="M297.667,323.267H135.533c-5.12,0-8.533,3.413-8.533,8.533c0,5.12,3.413,8.533,8.533,8.533h162.133
				c5.12,0,8.533-3.413,8.533-8.533C306.2,326.68,302.787,323.267,297.667,323.267z"/>
			<path d="M297.667,365.933H135.533c-5.12,0-8.533,3.413-8.533,8.533s3.413,8.533,8.533,8.533h162.133
				c5.12,0,8.533-3.413,8.533-8.533S302.787,365.933,297.667,365.933z"/>
			<path d="M297.667,408.6H135.533c-5.12,0-8.533,3.413-8.533,8.533s3.413,8.533,8.533,8.533h162.133
				c5.12,0,8.533-3.413,8.533-8.533S302.787,408.6,297.667,408.6z"/>
			<path d="M297.667,451.267H135.533c-5.12,0-8.533,3.413-8.533,8.533c0,5.12,3.413,8.533,8.533,8.533h162.133
				c5.12,0,8.533-3.413,8.533-8.533C306.2,454.68,302.787,451.267,297.667,451.267z"/>
			<path d="M383,109.933h34.133c5.12,0,8.533-3.413,8.533-8.533s-3.413-8.533-8.533-8.533H383c-5.12,0-8.533,3.413-8.533,8.533
				S377.88,109.933,383,109.933z"/>
			<path d="M383,152.6h34.133c5.12,0,8.533-3.413,8.533-8.533c0-5.12-3.413-8.533-8.533-8.533H383c-5.12,0-8.533,3.413-8.533,8.533
				C374.467,149.187,377.88,152.6,383,152.6z"/>
			<path d="M383,195.267h34.133c5.12,0,8.533-3.413,8.533-8.533s-3.413-8.533-8.533-8.533H383c-5.12,0-8.533,3.413-8.533,8.533
				S377.88,195.267,383,195.267z"/>
			<path d="M383,237.933h34.133c5.12,0,8.533-3.413,8.533-8.533s-3.413-8.533-8.533-8.533H383c-5.12,0-8.533,3.413-8.533,8.533
				S377.88,237.933,383,237.933z"/>
			<path d="M383,280.6h34.133c5.12,0,8.533-3.413,8.533-8.533c0-5.12-3.413-8.533-8.533-8.533H383c-5.12,0-8.533,3.413-8.533,8.533
				C374.467,277.187,377.88,280.6,383,280.6z"/>
			<path d="M383,323.267h34.133c5.12,0,8.533-3.413,8.533-8.533s-3.413-8.533-8.533-8.533H383c-5.12,0-8.533,3.413-8.533,8.533
				S377.88,323.267,383,323.267z"/>
			<path d="M383,365.933h34.133c5.12,0,8.533-3.413,8.533-8.533s-3.413-8.533-8.533-8.533H383c-5.12,0-8.533,3.413-8.533,8.533
				S377.88,365.933,383,365.933z"/>
			<path d="M383,408.6h34.133c5.12,0,8.533-3.413,8.533-8.533c0-5.12-3.413-8.533-8.533-8.533H383c-5.12,0-8.533,3.413-8.533,8.533
				C374.467,405.187,377.88,408.6,383,408.6z"/>
		</g>
	</g>
</g>
<g>
</g>
<g>
</g>
<g>
</g>
<g>
</g>
<g>
</g>
<g>
</g>
<g>
</g>
<g>
</g>
<g>
</g>
<g>
</g>
<g>
</g>
<g>
</g>
<g>
</g>
<g>
</g>
<g>
</g>
</svg>
